# File produced by Open Asset Import Library (http://www.assimp.sf.net)
# (assimp v3.1.187496374)

mtllib Game Console Assembly - Body, Game Console-1.obj.mtl

# 138 vertex positions
v  541.649 684.408 1071.94
v  541.649 4.95824 1071.94
v  584.51 684.408 1004.66
v  596.751 4.95824 987.601
v  597.287 684.408 988.012
v  633.072 684.408 941.376
v  660.797 4.95824 909.835
v  661.437 684.408 910.421
v  686.964 684.408 882.563
v  733.009 4.95824 839.586
v  733.4 684.408 840.013
v  745.778 684.408 828.67
v  812.51 4.95824 777.708
v  809.065 684.408 780.109
v  898.337 4.95824 724.951
v  876.343 684.408 737.248
v  812.604 684.408 777.854
v  989.446 4.95824 681.955
v  947.101 684.408 700.413
v  898.684 684.408 725.618
v  1084.73 4.95824 649.243
v  1020.8 684.408 669.886
v  989.77 684.408 682.739
v  1183.08 684.408 627.538
v  1174.76 684.408 628.633
v  1183.04 4.95824 627.213
v  1096.88 684.408 645.899
v  1084.87 684.408 649.685
v  1253.85 684.408 618.221
v  1283.17 4.95824 616.13
v  1283.21 684.408 616.939
v  1333.54 684.408 614.741
v  1383.92 4.95824 616.13
v  1383.88 684.408 616.939
v  1413.24 684.408 618.221
v  1484.05 4.95824 627.213
v  1484.01 684.408 627.538
v  1492.33 684.408 628.633
v  1582.35 4.95824 649.243
v  1570.21 684.408 645.899
v  1677.64 4.95824 681.955
v  1646.29 684.408 669.886
v  1582.22 684.408 649.685
v  1768.75 4.95824 724.951
v  1719.98 684.408 700.413
v  1677.32 684.408 682.739
v  1854.58 4.95824 777.708
v  1790.74 684.408 737.248
v  1768.4 684.408 725.618
v  1933.69 684.408 840.013
v  1921.31 684.408 828.67
v  1934.08 4.95824 839.586
v  1858.02 684.408 780.109
v  1854.48 684.408 777.854
v  1980.12 684.408 882.563
v  2006.29 4.95824 909.835
v  2005.65 684.408 910.421
v  2034.01 684.408 941.376
v  2070.33 4.95824 987.601
v  2069.8 684.408 988.012
v  2082.58 684.408 1004.66
v  2125.44 4.95824 1071.94
v  2125.44 684.408 1071.94
v  2630.26 1020.96 780.48
v  2653.37 4.95824 767.141
v  2653.37 1020.96 767.141
v  2581.93 4.95824 655.011
v  2581.93 1020.96 655.011
v  2500.99 4.95824 549.533
v  2500.99 1020.96 549.533
v  2411.17 4.95824 451.511
v  2411.17 1020.96 451.511
v  2313.15 4.95824 361.69
v  2313.15 1020.96 361.69
v  2207.67 4.95824 280.754
v  2207.67 1020.96 280.754
v  2095.54 4.95824 209.319
v  2095.54 1020.96 209.319
v  1977.61 4.95824 147.928
v  1977.61 1020.96 147.928
v  1854.78 4.95824 97.0497
v  1854.78 1020.96 97.0497
v  1727.98 4.95824 57.0703
v  1727.98 1020.96 57.0703
v  1598.18 4.95824 28.2943
v  1598.18 1020.96 28.2943
v  1466.37 4.95824 10.9405
v  1466.37 1020.96 10.9405
v  1333.54 4.95824 5.14123
v  1333.54 1020.96 5.14123
v  1200.72 4.95824 10.9405
v  1200.72 1020.96 10.9405
v  1068.9 4.95824 28.2943
v  1068.9 1020.96 28.2943
v  939.103 4.95824 57.0703
v  939.103 1020.96 57.0703
v  812.304 4.95824 97.0497
v  812.304 1020.96 97.0497
v  689.473 4.95824 147.928
v  689.473 1020.96 147.928
v  571.543 4.95824 209.319
v  571.543 1020.96 209.319
v  459.412 4.95824 280.754
v  459.412 1020.96 280.754
v  353.935 4.95824 361.69
v  353.935 1020.96 361.69
v  255.912 4.95824 451.511
v  255.912 1020.96 451.511
v  166.091 4.95824 549.533
v  166.091 1020.96 549.533
v  85.1552 4.95824 655.011
v  85.1552 1020.96 655.011
v  13.7202 4.95824 767.141
v  13.7202 1020.96 767.141
v  36.8243 1020.96 780.48
v  2560.08 1020.96 670.313
v  2480.56 1020.96 566.681
v  2392.31 1020.96 470.375
v  2296 1020.96 382.126
v  2192.37 1020.96 302.607
v  2082.2 1020.96 232.423
v  1966.34 1020.96 172.107
v  1845.66 1020.96 122.119
v  1721.08 1020.96 82.8396
v  1593.55 1020.96 54.5673
v  1464.04 1020.96 37.5173
v  1333.54 1020.96 31.8196
v  1203.04 1020.96 37.5173
v  1073.54 1020.96 54.5673
v  946.008 1020.96 82.8396
v  821.429 1020.96 122.119
v  700.747 1020.96 172.107
v  584.882 1020.96 232.423
v  474.714 1020.96 302.607
v  371.083 1020.96 382.126
v  274.776 1020.96 470.375
v  186.528 1020.96 566.681
v  107.009 1020.96 670.313

# 0 UV coordinates

# 179 vertex normals
vn 0.851121 0 0.52497
vn 0.831251 0 0.555897
vn 0.810278 0 0.586046
vn 0.792892 0 0.609362
vn 0.769965 0 0.638087
vn 0.746005 0 0.66594
vn 0.726322 0 0.687354
vn 0.700585 0 0.713569
vn 0.673888 0 0.738833
vn 0.652118 0 0.758118
vn 0.623841 0 0.781551
vn 0.595923 0 0.803042
vn 0.515818 0 0.856698
vn 0.546956 0 0.837161
vn 0.571068 0 0.820903
vn 0.42539 0 0.90501
vn 0.458356 0 0.888768
vn 0.48401 0 0.875063
vn 0.330491 0 0.943809
vn 0.364932 0 0.931034
vn 0.391855 0 0.920027
vn 0.167618 0 0.985852
vn 0.199209 0 0.979957
vn 0.232118 0 0.972688
vn 0.267676 0 0.963509
vn 0.295582 0 0.955317
vn 0.13888 0 0.990309
vn 0.102389 0 0.994744
vn 0.065788 0 0.997834
vn 0.036741 0 0.999325
vn 0 0 1
vn -0.036741 0 0.999325
vn -0.065788 0 0.997834
vn -0.102389 0 0.994744
vn -0.13888 0 0.990309
vn -0.167618 0 0.985852
vn -0.203703 0 0.979033
vn -0.235092 0 0.971973
vn -0.330491 0 0.943809
vn -0.295582 0 0.955317
vn -0.267676 0 0.963509
vn -0.42539 0 0.90501
vn -0.391855 0 0.920027
vn -0.364932 0 0.931034
vn -0.515818 0 0.856698
vn -0.48401 0 0.875063
vn -0.458356 0 0.888768
vn -0.652118 0 0.758118
vn -0.625036 0 0.780596
vn -0.600824 0 0.799381
vn -0.571068 0 0.820903
vn -0.546956 0 0.837161
vn -0.673888 0 0.738833
vn -0.700585 0 0.713569
vn -0.726322 0 0.687354
vn -0.746005 0 0.66594
vn -0.769965 0 0.638087
vn -0.792892 0 0.609362
vn -0.810278 0 0.586046
vn -0.831251 0 0.555897
vn -0.851121 0 0.52497
vn 0.5 0 0.866025
vn 0.851121 0 -0.52497
vn 0.835483 0 -0.549516
vn 0.802128 0 -0.597152
vn 0.784411 0 -0.620242
vn 0.74703 0 -0.66479
vn 0.727368 0 -0.686248
vn 0.686248 0 -0.727368
vn 0.66479 0 -0.74703
vn 0.620242 0 -0.784411
vn 0.597152 0 -0.802128
vn 0.549516 0 -0.835483
vn 0.52497 0 -0.851121
vn 0.474608 0 -0.880198
vn 0.448792 0 -0.893636
vn 0.396087 0 -0.918213
vn 0.369199 0 -0.929351
vn 0.314553 0 -0.94924
vn 0.286795 0 -0.957992
vn 0.230624 0 -0.973043
vn 0.20221 0 -0.979342
vn 0.14494 0 -0.98944
vn 0.116085 0 -0.993239
vn 0.058153 0 -0.998308
vn 0.0290765 0 -0.999577
vn -0.0290765 0 -0.999577
vn -0.058153 0 -0.998308
vn -0.116085 0 -0.993239
vn -0.14494 0 -0.98944
vn -0.20221 0 -0.979342
vn -0.230624 0 -0.973043
vn -0.286795 0 -0.957992
vn -0.314553 0 -0.94924
vn -0.369199 0 -0.929351
vn -0.396087 0 -0.918213
vn -0.448792 0 -0.893636
vn -0.474608 0 -0.880198
vn -0.52497 0 -0.851121
vn -0.549516 0 -0.835483
vn -0.597152 0 -0.802128
vn -0.620242 0 -0.784411
vn -0.66479 0 -0.74703
vn -0.686248 0 -0.727368
vn -0.727368 0 -0.686248
vn -0.74703 0 -0.66479
vn -0.784411 0 -0.620242
vn -0.802128 0 -0.597152
vn -0.835483 0 -0.549516
vn -0.851121 0 -0.52497
vn -0.5 0 0.866025
vn 0 1 0
vn 0 -1 0
vn 0.42529 0.866209 0.262318
vn 0.417477 0.866209 0.274584
vn 0.407352 0.866038 0.2899
vn 0.398563 0.866173 0.301483
vn 0.389689 0.866125 0.313002
vn 0.377991 0.866076 0.327162
vn 0.368204 0.866163 0.337917
vn 0.35834 0.866067 0.348599
vn 0.345204 0.86614 0.361436
vn 0.334498 0.866178 0.371277
vn 0.323722 0.866033 0.381038
vn 0.309924 0.866209 0.391956
vn 0.298387 0.866209 0.40081
vn 0.286161 0.866026 0.410013
vn 0.273953 0.866199 0.417909
vn 0.261685 0.86619 0.425718
vn 0.245998 0.866044 0.435262
vn 0.233135 0.866169 0.44204
vn 0.220221 0.866111 0.448725
vn 0.203604 0.866087 0.456551
vn 0.190187 0.866164 0.462157
vn 0.176731 0.866058 0.467664
vn 0.159379 0.866155 0.473681
vn 0.145515 0.866184 0.478069
vn 0.131622 0.86603 0.482356
vn 0.115239 0.866209 0.486213
vn 0.101041 0.866209 0.48936
vn 0.0853174 0.866027 0.492664
vn 0.0709154 0.866191 0.494655
vn 0.0564959 0.866172 0.496542
vn 0.038236 0.86605 0.498493
vn 0.0237128 0.866166 0.499194
vn 0.00918376 0.866098 0.499789
vn -0.00918376 0.866098 0.499789
vn -0.0237128 0.866166 0.499194
vn -0.038236 0.86605 0.498493
vn -0.0564959 0.866172 0.496542
vn -0.0709154 0.866191 0.494655
vn -0.0853174 0.866027 0.492664
vn -0.101041 0.866209 0.48936
vn -0.115239 0.866209 0.486213
vn -0.131622 0.86603 0.482357
vn -0.145515 0.866184 0.478069
vn -0.159379 0.866155 0.473681
vn -0.176731 0.866058 0.467664
vn -0.190187 0.866164 0.462157
vn -0.203604 0.866087 0.456551
vn -0.220221 0.866111 0.448725
vn -0.233135 0.866169 0.44204
vn -0.245998 0.866044 0.435262
vn -0.261685 0.86619 0.425718
vn -0.273953 0.866199 0.417909
vn -0.286161 0.866026 0.410013
vn -0.298387 0.866209 0.40081
vn -0.309924 0.866208 0.391956
vn -0.323722 0.866033 0.381038
vn -0.334498 0.866178 0.371277
vn -0.345204 0.86614 0.361436
vn -0.35834 0.866067 0.348599
vn -0.368204 0.866163 0.337917
vn -0.42529 0.866209 0.262318
vn -0.417477 0.866209 0.274584
vn -0.407352 0.866038 0.2899
vn -0.398563 0.866173 0.301483
vn -0.389689 0.866125 0.313002
vn -0.377991 0.866076 0.327162

# Mesh '<STL_BINARY>' with 272 faces
g <STL_BINARY>
usemtl DefaultMaterial
f  1//1 2//1 3//1
f  3//2 2//2 4//2
f  3//3 4//3 5//3
f  5//4 4//4 6//4
f  6//5 4//5 7//5
f  6//6 7//6 8//6
f  8//7 7//7 9//7
f  9//8 7//8 10//8
f  9//9 10//9 11//9
f  11//10 10//10 12//10
f  12//11 10//11 13//11
f  12//12 13//12 14//12
f  15//13 16//13 13//13
f  13//14 16//14 17//14
f  13//15 17//15 14//15
f  18//16 19//16 15//16
f  15//17 19//17 20//17
f  15//18 20//18 16//18
f  21//19 22//19 18//19
f  18//20 22//20 23//20
f  18//21 23//21 19//21
f  24//22 25//22 26//22
f  26//23 25//23 27//23
f  26//24 27//24 21//24
f  21//25 27//25 28//25
f  21//26 28//26 22//26
f  24//27 26//27 29//27
f  29//28 26//28 30//28
f  29//29 30//29 31//29
f  31//30 30//30 32//30
f  32//31 30//31 33//31
f  32//32 33//32 34//32
f  34//33 33//33 35//33
f  35//34 33//34 36//34
f  35//35 36//35 37//35
f  37//36 36//36 38//36
f  38//37 36//37 39//37
f  38//38 39//38 40//38
f  41//39 42//39 39//39
f  39//40 42//40 43//40
f  39//41 43//41 40//41
f  44//42 45//42 41//42
f  41//43 45//43 46//43
f  41//44 46//44 42//44
f  47//45 48//45 44//45
f  44//46 48//46 49//46
f  44//47 49//47 45//47
f  50//48 51//48 52//48
f  52//49 51//49 53//49
f  52//50 53//50 47//50
f  47//51 53//51 54//51
f  47//52 54//52 48//52
f  50//53 52//53 55//53
f  55//54 52//54 56//54
f  55//55 56//55 57//55
f  57//56 56//56 58//56
f  58//57 56//57 59//57
f  58//58 59//58 60//58
f  60//59 59//59 61//59
f  61//60 59//60 62//60
f  61//61 62//61 63//61
f  63//62 62//62 64//62
f  64//62 62//62 65//62
f  64//62 65//62 66//62
f  66//63 65//63 67//63
f  66//64 67//64 68//64
f  68//65 67//65 69//65
f  68//66 69//66 70//66
f  70//67 69//67 71//67
f  70//68 71//68 72//68
f  72//69 71//69 73//69
f  72//70 73//70 74//70
f  74//71 73//71 75//71
f  74//72 75//72 76//72
f  76//73 75//73 77//73
f  76//74 77//74 78//74
f  78//75 77//75 79//75
f  78//76 79//76 80//76
f  80//77 79//77 81//77
f  80//78 81//78 82//78
f  82//79 81//79 83//79
f  82//80 83//80 84//80
f  84//81 83//81 85//81
f  84//82 85//82 86//82
f  86//83 85//83 87//83
f  86//84 87//84 88//84
f  88//85 87//85 89//85
f  88//86 89//86 90//86
f  90//87 89//87 91//87
f  90//88 91//88 92//88
f  92//89 91//89 93//89
f  92//90 93//90 94//90
f  94//91 93//91 95//91
f  94//92 95//92 96//92
f  96//93 95//93 97//93
f  96//94 97//94 98//94
f  98//95 97//95 99//95
f  98//96 99//96 100//96
f  100//97 99//97 101//97
f  100//98 101//98 102//98
f  102//99 101//99 103//99
f  102//100 103//100 104//100
f  104//101 103//101 105//101
f  104//102 105//102 106//102
f  106//103 105//103 107//103
f  106//104 107//104 108//104
f  108//105 107//105 109//105
f  108//106 109//106 110//106
f  110//107 109//107 111//107
f  110//108 111//108 112//108
f  112//109 111//109 113//109
f  112//110 113//110 114//110
f  2//111 1//111 113//111
f  113//111 1//111 115//111
f  113//111 115//111 114//111
f  64//112 66//112 116//112
f  116//112 66//112 68//112
f  116//112 68//112 117//112
f  117//112 68//112 70//112
f  117//112 70//112 118//112
f  118//112 70//112 72//112
f  118//112 72//112 119//112
f  119//112 72//112 74//112
f  119//112 74//112 120//112
f  120//112 74//112 76//112
f  120//112 76//112 121//112
f  121//112 76//112 78//112
f  121//112 78//112 122//112
f  122//112 78//112 80//112
f  122//112 80//112 123//112
f  123//112 80//112 82//112
f  123//112 82//112 124//112
f  124//112 82//112 84//112
f  124//112 84//112 125//112
f  125//112 84//112 86//112
f  125//112 86//112 126//112
f  126//112 86//112 88//112
f  126//112 88//112 127//112
f  127//112 88//112 90//112
f  127//112 90//112 128//112
f  128//112 90//112 92//112
f  128//112 92//112 129//112
f  129//112 92//112 94//112
f  129//112 94//112 130//112
f  130//112 94//112 96//112
f  130//112 96//112 131//112
f  131//112 96//112 98//112
f  131//112 98//112 132//112
f  132//112 98//112 100//112
f  132//112 100//112 133//112
f  133//112 100//112 102//112
f  133//112 102//112 134//112
f  134//112 102//112 104//112
f  134//112 104//112 135//112
f  135//112 104//112 106//112
f  135//112 106//112 136//112
f  136//112 106//112 108//112
f  136//112 108//112 137//112
f  137//112 108//112 110//112
f  137//112 110//112 138//112
f  138//112 110//112 112//112
f  138//112 112//112 115//112
f  115//112 112//112 114//112
f  4//113 2//113 113//113
f  113//113 111//113 4//113
f  4//113 111//113 109//113
f  4//113 109//113 7//113
f  7//113 109//113 107//113
f  7//113 107//113 10//113
f  10//113 107//113 105//113
f  10//113 105//113 13//113
f  13//113 105//113 103//113
f  13//113 103//113 15//113
f  15//113 103//113 101//113
f  15//113 99//113 18//113
f  15//113 101//113 99//113
f  18//113 99//113 97//113
f  18//113 97//113 21//113
f  21//113 97//113 95//113
f  21//113 95//113 26//113
f  26//113 95//113 93//113
f  26//113 93//113 30//113
f  30//113 93//113 91//113
f  30//113 89//113 33//113
f  30//113 91//113 89//113
f  33//113 89//113 87//113
f  33//113 87//113 36//113
f  36//113 87//113 85//113
f  36//113 85//113 39//113
f  39//113 85//113 83//113
f  39//113 83//113 41//113
f  83//113 81//113 41//113
f  41//113 81//113 79//113
f  41//113 79//113 44//113
f  44//113 79//113 77//113
f  44//113 77//113 47//113
f  47//113 77//113 75//113
f  47//113 75//113 52//113
f  52//113 75//113 73//113
f  52//113 73//113 56//113
f  56//113 73//113 71//113
f  69//113 59//113 56//113
f  56//113 71//113 69//113
f  67//113 59//113 69//113
f  67//113 62//113 59//113
f  65//113 62//113 67//113
f  138//114 115//114 1//114
f  1//115 3//115 138//115
f  138//116 3//116 5//116
f  138//117 5//117 137//117
f  5//118 6//118 137//118
f  137//119 6//119 8//119
f  137//120 8//120 136//120
f  8//121 9//121 136//121
f  136//122 9//122 11//122
f  136//123 11//123 135//123
f  135//124 11//124 12//124
f  135//125 12//125 134//125
f  12//126 14//126 134//126
f  134//127 14//127 17//127
f  134//128 17//128 133//128
f  17//129 16//129 133//129
f  133//130 16//130 20//130
f  133//131 20//131 132//131
f  20//132 19//132 132//132
f  132//133 19//133 23//133
f  132//134 23//134 131//134
f  23//135 22//135 131//135
f  131//136 22//136 28//136
f  131//137 28//137 130//137
f  130//138 28//138 27//138
f  130//139 27//139 129//139
f  27//140 25//140 129//140
f  129//141 25//141 24//141
f  129//142 24//142 128//142
f  24//143 29//143 128//143
f  128//144 29//144 31//144
f  128//145 31//145 127//145
f  31//146 32//146 127//146
f  127//147 32//147 34//147
f  127//148 34//148 126//148
f  34//149 35//149 126//149
f  126//150 35//150 37//150
f  126//151 37//151 125//151
f  125//152 37//152 38//152
f  125//153 38//153 124//153
f  38//154 40//154 124//154
f  124//155 40//155 43//155
f  124//156 43//156 123//156
f  43//157 42//157 123//157
f  123//158 42//158 46//158
f  123//159 46//159 122//159
f  46//160 45//160 122//160
f  122//161 45//161 49//161
f  122//162 49//162 121//162
f  49//163 48//163 121//163
f  121//164 48//164 54//164
f  121//165 54//165 120//165
f  120//166 54//166 53//166
f  120//167 53//167 119//167
f  53//168 51//168 119//168
f  119//169 51//169 50//169
f  119//170 50//170 118//170
f  50//171 55//171 118//171
f  118//172 55//172 57//172
f  118//173 57//173 117//173
f  63//174 64//174 61//174
f  61//175 64//175 116//175
f  61//176 116//176 60//176
f  60//177 116//177 117//177
f  60//178 117//178 58//178
f  58//179 117//179 57//179

