# File produced by Open Asset Import Library (http://www.assimp.sf.net)
# (assimp v3.1.187496374)

mtllib Game Console Assembly - Display Screen, Game Console-1.obj.mtl

# 104 vertex positions
v  2644.57 2087.76 772.221
v  2644.57 1173.36 772.221
v  2576.63 1173.36 665.172
v  2576.63 2087.76 665.172
v  2499.98 1173.36 564.183
v  2499.98 2087.76 564.183
v  2415.14 1173.36 469.963
v  2415.14 2087.76 469.963
v  2322.72 1173.36 383.172
v  2322.72 2087.76 383.172
v  2223.36 1173.36 304.419
v  2223.36 2087.76 304.419
v  2117.75 1173.36 234.257
v  2117.75 2087.76 234.257
v  2006.65 1173.36 173.177
v  2006.65 2087.76 173.177
v  1890.82 1173.36 121.608
v  1890.82 2087.76 121.608
v  1771.09 1173.36 79.9128
v  1771.09 2087.76 79.9128
v  1648.29 1173.36 48.3824
v  1648.29 2087.76 48.3824
v  1523.28 1173.36 27.2383
v  1523.28 2087.76 27.2383
v  1396.94 1173.36 16.6292
v  1396.94 2087.76 16.6292
v  1270.15 1173.36 16.6292
v  1270.15 2087.76 16.6292
v  1143.81 1173.36 27.2383
v  1143.81 2087.76 27.2383
v  1018.8 1173.36 48.3824
v  1018.8 2087.76 48.3824
v  895.995 1173.36 79.9128
v  895.995 2087.76 79.9128
v  776.261 1173.36 121.608
v  776.261 2087.76 121.608
v  660.436 1173.36 173.177
v  660.436 2087.76 173.177
v  549.333 1173.36 234.257
v  549.333 2087.76 234.257
v  443.73 1173.36 304.419
v  443.73 2087.76 304.419
v  344.369 1173.36 383.172
v  344.369 2087.76 383.172
v  251.946 1173.36 469.963
v  251.946 2087.76 469.963
v  167.109 1173.36 564.183
v  167.109 2087.76 564.183
v  90.4544 1173.36 665.172
v  90.4544 2087.76 665.172
v  22.5189 1173.36 772.221
v  22.5189 2087.76 772.221
v  24.7187 2087.76 773.491
v  24.7187 1173.36 773.491
v  92.5401 2087.76 666.622
v  92.5401 1173.36 666.622
v  169.066 2087.76 565.802
v  169.066 1173.36 565.802
v  253.76 2087.76 471.74
v  253.76 1173.36 471.74
v  346.028 2087.76 385.095
v  346.028 1173.36 385.095
v  445.223 2087.76 306.474
v  445.223 1173.36 306.474
v  550.649 2087.76 236.429
v  550.649 1173.36 236.429
v  661.566 2087.76 175.452
v  661.566 1173.36 175.452
v  777.196 2087.76 123.97
v  777.196 1173.36 123.97
v  896.729 2087.76 82.3443
v  896.729 1173.36 82.3443
v  1019.33 2087.76 50.8668
v  1019.33 1173.36 50.8668
v  1144.13 2087.76 29.7583
v  1144.13 1173.36 29.7583
v  1270.26 2087.76 19.1669
v  1270.26 1173.36 19.1669
v  1396.83 2087.76 19.1669
v  1396.83 1173.36 19.1669
v  1522.96 2087.76 29.7583
v  1522.96 1173.36 29.7583
v  1647.76 2087.76 50.8668
v  1647.76 1173.36 50.8668
v  1770.36 2087.76 82.3443
v  1770.36 1173.36 82.3443
v  1889.89 2087.76 123.97
v  1889.89 1173.36 123.97
v  2005.52 2087.76 175.452
v  2005.52 1173.36 175.452
v  2116.44 2087.76 236.429
v  2116.44 1173.36 236.429
v  2221.86 2087.76 306.474
v  2221.86 1173.36 306.474
v  2321.06 2087.76 385.095
v  2321.06 1173.36 385.095
v  2413.33 2087.76 471.74
v  2413.33 1173.36 471.74
v  2498.02 2087.76 565.802
v  2498.02 1173.36 565.802
v  2574.55 2087.76 666.622
v  2574.55 1173.36 666.622
v  2642.37 2087.76 773.491
v  2642.37 1173.36 773.491

# 0 UV coordinates

# 104 vertex normals
vn 0.851731 0 -0.52398
vn 0.83676 0 -0.547569
vn 0.804898 0 -0.593413
vn 0.788006 0 -0.615667
vn 0.75242 0 -0.658684
vn 0.733725 0 -0.679447
vn 0.694664 0 -0.719335
vn 0.674297 0 -0.73846
vn 0.632035 0 -0.77494
vn 0.610139 0 -0.792294
vn 0.564973 0 -0.825109
vn 0.541702 0 -0.840571
vn 0.493948 0 -0.869491
vn 0.469465 0 -0.882951
vn 0.419459 0 -0.907774
vn 0.393935 0 -0.919138
vn 0.342027 0 -0.93969
vn 0.315642 0 -0.948878
vn 0.262196 0 -0.965015
vn 0.235135 0 -0.971963
vn 0.180526 0 -0.98357
vn 0.152979 0 -0.98823
vn 0.0975901 0 -0.995227
vn 0.0697492 0 -0.997565
vn 0.0139694 0 -0.999902
vn -0.0139694 0 -0.999902
vn -0.0697492 0 -0.997565
vn -0.0975901 0 -0.995227
vn -0.152979 0 -0.98823
vn -0.180526 0 -0.98357
vn -0.235135 0 -0.971963
vn -0.262196 0 -0.965015
vn -0.315642 0 -0.948878
vn -0.342027 0 -0.93969
vn -0.393935 0 -0.919138
vn -0.419459 0 -0.907774
vn -0.469465 0 -0.882951
vn -0.493948 0 -0.869491
vn -0.541702 0 -0.840571
vn -0.564973 0 -0.825109
vn -0.610139 0 -0.792294
vn -0.632035 0 -0.77494
vn -0.674297 0 -0.73846
vn -0.694664 0 -0.719335
vn -0.733725 0 -0.679447
vn -0.75242 0 -0.658684
vn -0.788006 0 -0.615667
vn -0.804898 0 -0.593413
vn -0.83676 0 -0.547569
vn -0.851731 0 -0.52398
vn -0.5 0 0.866025
vn 0.851731 0 0.52398
vn 0.83676 0 0.547569
vn 0.804898 0 0.593413
vn 0.788006 0 0.615667
vn 0.75242 0 0.658684
vn 0.733725 0 0.679447
vn 0.694664 0 0.719335
vn 0.674297 0 0.73846
vn 0.632035 0 0.77494
vn 0.610139 0 0.792294
vn 0.564973 0 0.825109
vn 0.541702 0 0.840571
vn 0.493948 0 0.869491
vn 0.469465 0 0.882951
vn 0.419459 0 0.907774
vn 0.393935 0 0.919138
vn 0.342027 0 0.93969
vn 0.315642 0 0.948878
vn 0.262196 0 0.965015
vn 0.235135 0 0.971963
vn 0.180526 0 0.98357
vn 0.152979 0 0.98823
vn 0.0975901 0 0.995227
vn 0.0697492 0 0.997565
vn 0.0139694 0 0.999902
vn -0.0139694 0 0.999902
vn -0.0697492 0 0.997565
vn -0.0975901 0 0.995227
vn -0.152979 0 0.98823
vn -0.180526 0 0.98357
vn -0.235135 0 0.971963
vn -0.262196 0 0.965015
vn -0.315642 0 0.948878
vn -0.342027 0 0.93969
vn -0.393935 0 0.919138
vn -0.419459 0 0.907774
vn -0.469465 0 0.882951
vn -0.493948 0 0.869491
vn -0.541702 0 0.840571
vn -0.564973 0 0.825109
vn -0.610139 0 0.792294
vn -0.632035 0 0.77494
vn -0.674297 0 0.73846
vn -0.694664 0 0.719335
vn -0.733725 0 0.679447
vn -0.75242 0 0.658684
vn -0.788006 0 0.615667
vn -0.804898 0 0.593413
vn -0.83676 0 0.547569
vn -0.851731 0 0.52398
vn 0.5 0 0.866025
vn 0 1 0
vn 0 -1 0

# Mesh '<STL_BINARY>' with 204 faces
g <STL_BINARY>
usemtl DefaultMaterial
f  1//1 2//1 3//1
f  1//2 3//2 4//2
f  4//3 3//3 5//3
f  4//4 5//4 6//4
f  6//5 5//5 7//5
f  6//6 7//6 8//6
f  8//7 7//7 9//7
f  8//8 9//8 10//8
f  10//9 9//9 11//9
f  10//10 11//10 12//10
f  12//11 11//11 13//11
f  12//12 13//12 14//12
f  14//13 13//13 15//13
f  14//14 15//14 16//14
f  16//15 15//15 17//15
f  16//16 17//16 18//16
f  18//17 17//17 19//17
f  18//18 19//18 20//18
f  20//19 19//19 21//19
f  20//20 21//20 22//20
f  22//21 21//21 23//21
f  22//22 23//22 24//22
f  24//23 23//23 25//23
f  24//24 25//24 26//24
f  26//25 25//25 27//25
f  26//26 27//26 28//26
f  28//27 27//27 29//27
f  28//28 29//28 30//28
f  30//29 29//29 31//29
f  30//30 31//30 32//30
f  32//31 31//31 33//31
f  32//32 33//32 34//32
f  34//33 33//33 35//33
f  34//34 35//34 36//34
f  36//35 35//35 37//35
f  36//36 37//36 38//36
f  38//37 37//37 39//37
f  38//38 39//38 40//38
f  40//39 39//39 41//39
f  40//40 41//40 42//40
f  42//41 41//41 43//41
f  42//42 43//42 44//42
f  44//43 43//43 45//43
f  44//44 45//44 46//44
f  46//45 45//45 47//45
f  46//46 47//46 48//46
f  48//47 47//47 49//47
f  48//48 49//48 50//48
f  50//49 49//49 51//49
f  50//50 51//50 52//50
f  53//51 52//51 54//51
f  54//51 52//51 51//51
f  53//52 54//52 55//52
f  55//53 54//53 56//53
f  55//54 56//54 57//54
f  57//55 56//55 58//55
f  57//56 58//56 59//56
f  59//57 58//57 60//57
f  59//58 60//58 61//58
f  61//59 60//59 62//59
f  61//60 62//60 63//60
f  63//61 62//61 64//61
f  63//62 64//62 65//62
f  65//63 64//63 66//63
f  65//64 66//64 67//64
f  67//65 66//65 68//65
f  67//66 68//66 69//66
f  69//67 68//67 70//67
f  69//68 70//68 71//68
f  71//69 70//69 72//69
f  71//70 72//70 73//70
f  73//71 72//71 74//71
f  73//72 74//72 75//72
f  75//73 74//73 76//73
f  75//74 76//74 77//74
f  77//75 76//75 78//75
f  77//76 78//76 79//76
f  79//77 78//77 80//77
f  79//78 80//78 81//78
f  81//79 80//79 82//79
f  81//80 82//80 83//80
f  83//81 82//81 84//81
f  83//82 84//82 85//82
f  85//83 84//83 86//83
f  85//84 86//84 87//84
f  87//85 86//85 88//85
f  87//86 88//86 89//86
f  89//87 88//87 90//87
f  89//88 90//88 91//88
f  91//89 90//89 92//89
f  91//90 92//90 93//90
f  93//91 92//91 94//91
f  93//92 94//92 95//92
f  95//93 94//93 96//93
f  95//94 96//94 97//94
f  97//95 96//95 98//95
f  97//96 98//96 99//96
f  99//97 98//97 100//97
f  99//98 100//98 101//98
f  101//99 100//99 102//99
f  101//100 102//100 103//100
f  103//101 102//101 104//101
f  1//102 103//102 2//102
f  2//102 103//102 104//102
f  103//103 1//103 101//103
f  101//103 1//103 4//103
f  101//103 4//103 99//103
f  99//103 4//103 6//103
f  99//103 6//103 97//103
f  97//103 6//103 8//103
f  97//103 8//103 95//103
f  95//103 8//103 10//103
f  95//103 10//103 93//103
f  93//103 10//103 12//103
f  93//103 12//103 91//103
f  91//103 12//103 14//103
f  91//103 14//103 89//103
f  89//103 14//103 16//103
f  89//103 16//103 87//103
f  87//103 16//103 18//103
f  87//103 18//103 85//103
f  85//103 18//103 20//103
f  85//103 20//103 83//103
f  83//103 20//103 22//103
f  83//103 22//103 81//103
f  81//103 22//103 24//103
f  81//103 24//103 79//103
f  79//103 24//103 26//103
f  79//103 26//103 77//103
f  77//103 26//103 28//103
f  77//103 28//103 75//103
f  75//103 28//103 30//103
f  75//103 30//103 73//103
f  73//103 30//103 32//103
f  73//103 32//103 71//103
f  71//103 32//103 34//103
f  71//103 34//103 69//103
f  69//103 34//103 36//103
f  69//103 36//103 67//103
f  67//103 36//103 38//103
f  67//103 38//103 65//103
f  65//103 38//103 40//103
f  65//103 40//103 63//103
f  63//103 40//103 42//103
f  63//103 42//103 61//103
f  61//103 42//103 44//103
f  61//103 44//103 59//103
f  59//103 44//103 46//103
f  59//103 46//103 57//103
f  57//103 46//103 48//103
f  57//103 48//103 55//103
f  55//103 48//103 50//103
f  55//103 50//103 53//103
f  53//103 50//103 52//103
f  54//104 51//104 56//104
f  56//104 51//104 49//104
f  56//104 49//104 58//104
f  58//104 49//104 47//104
f  58//104 47//104 60//104
f  60//104 47//104 45//104
f  60//104 45//104 62//104
f  62//104 45//104 43//104
f  62//104 43//104 64//104
f  64//104 43//104 41//104
f  64//104 41//104 66//104
f  66//104 41//104 39//104
f  66//104 39//104 68//104
f  68//104 39//104 37//104
f  68//104 37//104 70//104
f  70//104 37//104 35//104
f  70//104 35//104 72//104
f  72//104 35//104 33//104
f  72//104 33//104 74//104
f  74//104 33//104 31//104
f  74//104 31//104 76//104
f  76//104 31//104 29//104
f  76//104 29//104 78//104
f  78//104 29//104 27//104
f  78//104 27//104 80//104
f  80//104 27//104 25//104
f  80//104 25//104 82//104
f  82//104 25//104 23//104
f  82//104 23//104 84//104
f  84//104 23//104 21//104
f  84//104 21//104 86//104
f  86//104 21//104 19//104
f  86//104 19//104 88//104
f  88//104 19//104 17//104
f  88//104 17//104 90//104
f  90//104 17//104 15//104
f  90//104 15//104 92//104
f  92//104 15//104 13//104
f  92//104 13//104 94//104
f  94//104 13//104 11//104
f  94//104 11//104 96//104
f  96//104 11//104 9//104
f  96//104 9//104 98//104
f  98//104 9//104 7//104
f  98//104 7//104 100//104
f  100//104 7//104 5//104
f  100//104 5//104 102//104
f  102//104 5//104 3//104
f  102//104 3//104 104//104
f  104//104 3//104 2//104

